<svg xmlns="http://www.w3.org/2000/svg" width="31" height="33" viewBox="0 0 31 33" fill="none">
<path d="M17.7802 5.26741C17.373 4.26766 16.8154 3.38039 16.1074 2.61183C15.3995 1.83703 14.5474 1.21219 13.5576 0.724815C12.574 0.243688 11.4964 0 10.3248 0H2.44963C1.09638 0 0 1.09347 0 2.44313V4.74879C0 5.28615 0.438554 5.72354 0.977348 5.72354H9.07179C10.4626 5.72354 11.7031 6.76078 11.7783 8.14167C11.8535 9.6163 10.6819 10.8347 9.21589 10.8347H2.4559C1.09638 10.8347 0 11.9345 0 13.2841V16.5583V19.2451C0 20.8759 2.01735 21.6445 3.10747 20.4323L6.5783 16.5645H10.494C11.6655 16.5645 12.7368 16.3333 13.7142 15.8772C14.6915 15.4148 15.5248 14.8025 16.214 14.0277C16.8968 13.2529 17.4356 12.3656 17.8178 11.3721C18.2 10.3724 18.3942 9.34762 18.3942 8.29164C18.3879 7.2669 18.1874 6.26715 17.7802 5.26741Z" fill="#1a72fd"/>
<path d="M13.2077 26.9122C13.615 27.9119 14.1725 28.7992 14.8805 29.5677C15.5884 30.3426 16.4405 30.9674 17.4304 31.4548C18.4202 31.9359 19.4978 32.1796 20.6694 32.1796H28.5446C29.8978 32.1796 30.9942 31.0861 30.9942 29.7365V27.4308C30.9942 26.8934 30.5557 26.456 30.0169 26.456H21.9224C20.5316 26.456 19.2911 25.4188 19.2159 24.0379C19.1407 22.5633 20.3123 21.3448 21.7783 21.3448H28.5446C29.8978 21.3448 31.0005 20.2514 31.0005 18.8955V15.6213V12.9345C31.0005 11.3037 28.9831 10.5351 27.893 11.7473L24.4096 15.6213H20.494C19.3224 15.6213 18.2511 15.8525 17.2737 16.3086C16.2964 16.771 15.4631 17.3834 14.774 18.1582C14.0911 18.933 13.5523 19.8202 13.1701 20.8137C12.788 21.8135 12.5938 22.8382 12.5938 23.8942C12.6 24.9127 12.8005 25.9124 13.2077 26.9122Z" fill="#1a72fd"/>
</svg>