<svg width="33" height="22" viewBox="0 0 33 22" fill="none" xmlns="http://www.w3.org/2000/svg">
<path d="M33 19.8611L28.5186 15.3796C29.639 13.75 30.3518 11.8149 30.3518 9.67597C30.3518 4.37966 25.9722 0 20.6759 0C15.3796 0 11 4.37966 11 9.67597C11 14.9722 15.3796 19.3519 20.6759 19.3519C22.8148 19.3519 24.75 18.6389 26.3797 17.5185L30.8611 22L33 19.8611ZM14.0555 9.77778C14.0555 6.11112 17.0092 3.15742 20.6759 3.15742C24.3425 3.15742 27.2963 6.11112 27.2963 9.77778C27.2963 13.4444 24.3425 16.3982 20.6759 16.3982C17.0092 16.3982 14.0555 13.4444 14.0555 9.77778Z" fill="black"/>
<line y1="3" x2="10" y2="3" stroke="black" stroke-width="4"/>
<line y1="10" x2="7" y2="10" stroke="black" stroke-width="4"/>
<line y1="17" x2="10" y2="17" stroke="black" stroke-width="4"/>
</svg>
