<svg width="24" height="24" viewBox="0 0 24 24" fill="none" xmlns="http://www.w3.org/2000/svg">
<path d="M20.8333 19L17.1667 15.3333C18.0834 14 18.6666 12.4167 18.6666 10.6667C18.6666 6.33336 15.0833 2.75 10.7499 2.75C6.41659 2.75 2.83325 6.33336 2.83325 10.6667C2.83325 15 6.41659 18.5834 10.7499 18.5834C12.4999 18.5834 14.0833 18 15.4167 17.0833L19.0833 20.75L20.8333 19ZM5.33325 10.75C5.33325 7.75001 7.74992 5.33334 10.7499 5.33334C13.7499 5.33334 16.1666 7.75001 16.1666 10.75C16.1666 13.75 13.7499 16.1667 10.7499 16.1667C7.74992 16.1667 5.33325 13.75 5.33325 10.75Z" fill="black"/>
</svg>
