<svg width="24" height="24" viewBox="0 0 24 24" fill="none" xmlns="http://www.w3.org/2000/svg">
<path d="M24 19.3131C24 19.8519 23.8114 20.3098 23.4343 20.6869L20.6869 23.4343C20.3098 23.8114 19.8519 24 19.3131 24C18.7744 24 18.3165 23.8114 17.9394 23.4343L12 17.4949L6.06061 23.4343C5.6835 23.8114 5.22559 24 4.68687 24C4.14815 24 3.69024 23.8114 3.31313 23.4343L0.565657 20.6869C0.188552 20.3098 0 19.8519 0 19.3131C0 18.7744 0.188552 18.3165 0.565657 17.9394L6.50505 12L0.565657 6.06061C0.188552 5.6835 0 5.22559 0 4.68687C0 4.14815 0.188552 3.69024 0.565657 3.31313L3.31313 0.565657C3.69024 0.188552 4.14815 0 4.68687 0C5.22559 0 5.6835 0.188552 6.06061 0.565657L12 6.50505L17.9394 0.565657C18.3165 0.188552 18.7744 0 19.3131 0C19.8519 0 20.3098 0.188552 20.6869 0.565657L23.4343 3.31313C23.8114 3.69024 24 4.14815 24 4.68687C24 5.22559 23.8114 5.6835 23.4343 6.06061L17.4949 12L23.4343 17.9394C23.8114 18.3165 24 18.7744 24 19.3131Z" fill="black"/>
</svg>
