<svg width="248" height="54" viewBox="0 0 248 54" fill="none" xmlns="http://www.w3.org/2000/svg">
<path d="M87.9205 9.04932H67.3578C64.9322 9.04932 62.9658 11.002 62.9658 13.4105V41.4612C62.9658 41.7288 63.1854 41.9469 63.4549 41.9469H70.0629C70.3324 41.9469 70.552 41.7288 70.552 41.4612V30.6672C70.552 30.2409 70.9014 29.894 71.3306 29.894H83.6882C85.2054 29.894 86.4332 28.6749 86.4332 27.1683V23.8973C86.4332 23.6297 86.2136 23.4117 85.9441 23.4117H71.3406C70.9113 23.4117 70.562 23.0647 70.562 22.6385V16.3841C70.562 15.9381 70.9213 15.5813 71.3705 15.5813H85.6446C87.1718 15.5813 88.4096 14.3522 88.4096 12.8357V9.535C88.4096 9.26738 88.19 9.04932 87.9205 9.04932Z" fill="black"/>
<path d="M102.225 16.7314C98.0721 16.7314 94.6782 18.1687 92.6519 20.7854C92.3025 21.2414 92.053 21.7865 92.0829 22.3614C92.1228 23.5013 92.9114 24.3735 93.9495 24.5817L97.5131 25.3052C97.7426 25.3548 97.9822 25.2259 98.0521 25.0178C98.7009 23.0255 100.378 22.1334 103.173 22.3218C105.019 22.4407 106.467 23.9969 106.467 25.8702V27.0696H99.6093C93.2308 27.0696 89.4178 29.9737 89.4178 34.8306C89.4178 39.6081 92.9813 42.6907 98.4913 42.6907C101.396 42.6907 103.862 41.8383 105.828 40.1731L106.457 39.6378V41.4914C106.457 41.7491 106.666 41.9572 106.926 41.9572C107.964 41.9473 110.33 41.9473 110.34 41.9473C112.077 41.9473 113.484 40.5497 113.484 38.8251V26.346C113.484 20.3295 109.272 16.7314 102.225 16.7314ZM106.457 32.3724C106.457 35.5343 103.562 37.4275 100.767 37.4275C98.3815 37.4275 96.8443 36.2579 96.8443 34.4341C96.8443 32.64 98.3216 31.4407 100.518 31.4407H106.467V32.3724H106.457Z" fill="black"/>
<path d="M164.861 35.6627C164.741 35.6033 164.601 35.6033 164.472 35.6528C163.483 36.0394 162.375 36.2773 161.507 36.2773C159.001 36.2773 157.734 34.9194 157.734 32.2332V23.8874C157.734 23.4612 158.083 23.1143 158.512 23.1143H162.864C164.162 23.1143 165.22 22.0636 165.22 20.7751V17.97C165.22 17.7024 165.001 17.4843 164.731 17.4843H157.734V9.535C157.734 9.26738 157.514 9.04932 157.245 9.04932H153.332C151.715 9.04932 150.407 10.3478 150.407 11.9535V17.4843H146.295C146.025 17.4843 145.805 17.7024 145.805 17.97V22.6187C145.805 22.8863 146.025 23.1044 146.295 23.1044H149.718C150.098 23.1044 150.417 23.4117 150.417 23.7982V33.0262C150.417 38.339 154.749 42.6804 160.099 42.6903C162.315 42.7002 164.152 42.2542 166.268 41.2035C166.478 41.1044 166.578 40.8665 166.508 40.6385L165.12 35.9502C165.07 35.8213 164.981 35.7222 164.861 35.6627Z" fill="black"/>
<path d="M182.03 16.8403C174.234 16.8403 168.355 22.3811 168.355 29.7159C168.355 37.0903 174.234 42.641 182.03 42.641C189.736 42.641 195.555 37.0804 195.555 29.7159C195.555 22.3712 189.746 16.8403 182.03 16.8403ZM182.03 36.6245C178.806 36.6245 175.372 34.206 175.372 29.7159C175.372 25.3943 178.756 22.8073 182.03 22.8073C185.224 22.8073 188.528 25.3943 188.528 29.7159C188.528 34.0375 185.234 36.6245 182.03 36.6245Z" fill="black"/>
<path d="M217.974 17.1874C217.765 17.1577 217.376 17.1279 216.986 17.1279C213.393 17.1279 210.568 18.803 208.562 22.1136L207.853 23.2931C207.853 23.2931 207.853 19.3383 207.853 17.9506C207.853 17.6929 207.643 17.4748 207.374 17.4748H204.918C202.493 17.4748 200.526 19.4275 200.526 21.8361V41.4418C200.526 41.7094 200.746 41.9275 201.015 41.9275H207.374C207.643 41.9275 207.863 41.7094 207.863 41.4418V34.4242C207.863 27.9022 210.937 24.6015 216.996 24.6015H217.625C217.885 24.6015 218.094 24.4033 218.104 24.1456C218.164 22.3515 218.394 17.8218 218.394 17.683C218.384 17.5046 218.274 17.237 217.974 17.1874Z" fill="black"/>
<path d="M143.09 33.433L137.291 32.1841C137.051 32.1346 136.822 32.2733 136.732 32.5112C135.764 35.0487 133.767 36.4463 131.102 36.4463C127.299 36.4463 124.644 33.6907 124.644 29.7359C124.644 25.7811 127.299 23.0255 131.102 23.0255C133.797 23.0255 135.764 24.4429 136.622 27.02C136.692 27.2381 136.951 27.367 137.201 27.3075L143.08 25.9099C143.21 25.8802 143.33 25.791 143.4 25.672C143.46 25.563 143.48 25.4341 143.44 25.3152C141.803 20.1115 136.951 16.7612 131.092 16.7612C123.406 16.7612 117.617 22.3416 117.617 29.7458C117.617 37.15 123.406 42.7304 131.092 42.7304C136.991 42.7304 141.952 39.2315 143.45 34.0278C143.48 33.9088 143.47 33.7899 143.4 33.6808C143.35 33.552 143.23 33.4628 143.09 33.433Z" fill="black"/>
<path d="M28.3286 8.35573C27.6798 6.76982 26.7914 5.36233 25.6634 4.14317C24.5355 2.9141 23.1779 1.92291 21.6008 1.14978C20.0336 0.386564 18.3168 0 16.4502 0H3.90292C1.74683 0 0 1.73458 0 3.87555V7.53304C0 8.38546 0.698732 9.0793 1.55717 9.0793H14.4538C16.6698 9.0793 18.6462 10.7247 18.7659 12.9152C18.8857 15.2544 17.0191 17.1872 14.6834 17.1872H3.9129C1.74683 17.1872 0 18.9317 0 21.0727V26.2665V30.5286C0 33.1156 3.21417 34.3348 4.95102 32.4119L10.481 26.2764H16.7197C18.5863 26.2764 20.2932 25.9097 21.8504 25.1861C23.4075 24.4526 24.7351 23.4813 25.8331 22.2522C26.9212 21.0231 27.7796 19.6156 28.3885 18.0396C28.9974 16.4537 29.3068 14.8282 29.3068 13.1531C29.2968 11.5275 28.9774 9.94163 28.3286 8.35573Z" fill="#00D879"/>
<path d="M21.0418 42.6905C21.6906 44.2764 22.579 45.6839 23.707 46.903C24.8349 48.1321 26.1925 49.1233 27.7696 49.8964C29.3468 50.6597 31.0636 51.0462 32.9303 51.0462H45.4775C47.6336 51.0462 49.3804 49.3116 49.3804 47.1707V43.5132C49.3804 42.6608 48.6817 41.9669 47.8232 41.9669H34.9266C32.7107 41.9669 30.7342 40.3215 30.6145 38.131C30.4947 35.7918 32.3613 33.859 34.697 33.859H45.4775C47.6336 33.859 49.3904 32.1244 49.3904 29.9735V24.7797V20.5176C49.3904 17.9306 46.1762 16.7114 44.4394 18.6343L38.8894 24.7797H32.6508C30.7841 24.7797 29.0772 25.1464 27.5201 25.87C25.9629 26.6035 24.6353 27.5749 23.5373 28.8039C22.4493 30.033 21.5908 31.4405 20.9819 33.0165C20.373 34.6024 20.0636 36.2279 20.0636 37.903C20.0736 39.5187 20.393 41.1046 21.0418 42.6905Z" fill="#00D879"/>
<path d="M224.862 53.3361L230.023 41.4815L219.931 18.0795C219.801 17.7722 220.021 17.4253 220.36 17.4253H227.198C227.407 17.4253 227.607 17.5541 227.677 17.7524L233.147 31.183C233.387 31.7678 234.225 31.7777 234.475 31.2028L240.324 17.7623C240.414 17.5541 240.613 17.4253 240.843 17.4253H247.601C247.88 17.4253 248.07 17.7028 247.96 17.9605L232.578 53.7227C232.508 53.8912 232.338 54.0002 232.159 54.0002H225.301C224.952 54.0002 224.722 53.6533 224.862 53.3361Z" fill="black"/>
</svg>
