<?xml version="1.0" encoding="UTF-8"?><svg id="icono" xmlns="http://www.w3.org/2000/svg" viewBox="0 0 612 612" width="40" height="40"><defs><style>.cls-1{fill:#222221;stroke-width:0px;}</style></defs><path class="cls-1" d="m504.86,217.12c0-3.6-.37-6.9-1.08-9.8-4-16.23-17.56-26.32-35.38-26.32-80.76,0-161.51,0-242.27,0h-47.11c-4.12.02-8.3-.01-12.44-.02-9.94-.03-20.23-.06-30.33.09-14.07.2-26.79,9.36-31.65,22.78-.58,1.59-1.07,3.22-1.59,4.94-.19.62-.38,1.25-.57,1.87v189.03c.22.41.46.92.6,1.55,3.96,17.86,17.26,28.52,35.56,28.53,122.36.02,230.37.02,330.2,0,21.24,0,36.08-14.86,36.1-36.11.04-62.54.03-120.28-.04-176.53Zm-384.19-2.53c.44-8.2,7.06-14.82,15.42-15.4,1.03-.07,1.99-.06,2.93-.05h.93s327.44,0,327.44,0c13.04,0,19.38,6.29,19.39,19.23v13.59H120.62v-3.74c0-1.44-.02-2.86-.04-4.26-.04-3.21-.08-6.25.09-9.38Zm365.93,36.09v32.62H120.77v-32.62h365.82Zm.18,142.11c0,12.33-6.56,18.85-18.97,18.85-54.71,0-109.41,0-164.12,0s-109.41,0-164.12,0c-12.41,0-18.98-6.52-18.98-18.85,0-20.19,0-40.37,0-60.56v-30.44h366.19v32.5c0,19.5,0,39,0,58.5Z"/><path class="cls-1" d="m226.06,360.4c-5.74-.04-11.59-.03-17.25-.02-2.51,0-5.02,0-7.53,0-2.6,0-5.18,0-7.78-.01-2.47,0-4.98-.01-7.5-.01-3.3,0-6.61,0-9.9.04-5.48.05-9.51,3.79-9.59,8.9-.03,2.44.85,4.7,2.49,6.37,1.77,1.81,4.29,2.81,7.1,2.82,15.47.07,31.83.07,49.99,0,5.66-.02,9.77-3.83,9.77-9.06,0-5.2-4.12-9.01-9.8-9.05Z"/></svg>