<svg width="23" height="32" viewBox="0 0 23 32" fill="none" xmlns="http://www.w3.org/2000/svg">
<path d="M0.75 31.25V9.36542L11.5 0.952375L22.25 9.36542V31.25H0.75Z" stroke="black" stroke-width="1.5"/>
<path d="M11.216 21.896C12.0373 21.896 12.6133 21.768 12.944 21.512C13.2747 21.2453 13.44 20.9093 13.44 20.504C13.44 20.2053 13.3653 19.9493 13.216 19.736C13.0773 19.5227 12.8853 19.336 12.64 19.176C12.4053 19.016 12.128 18.872 11.808 18.744C11.4987 18.616 11.1787 18.4933 10.848 18.376C10.528 18.2587 10.208 18.1307 9.888 17.992C9.57867 17.8427 9.30133 17.6667 9.056 17.464C8.81067 17.2507 8.608 17 8.448 16.712C8.29867 16.4133 8.224 16.0507 8.224 15.624C8.224 14.8667 8.448 14.248 8.896 13.768C9.35467 13.2773 10.016 12.968 10.88 12.84V11H12.208V12.792C12.6773 12.8133 13.1147 12.872 13.52 12.968C13.9253 13.064 14.2453 13.1547 14.48 13.24L14.176 14.488C13.92 14.392 13.6 14.296 13.216 14.2C12.832 14.0933 12.352 14.04 11.776 14.04C11.136 14.04 10.64 14.1627 10.288 14.408C9.94667 14.6533 9.776 15 9.776 15.448C9.776 15.6933 9.824 15.9013 9.92 16.072C10.0267 16.2427 10.176 16.3973 10.368 16.536C10.56 16.664 10.784 16.7813 11.04 16.888C11.3067 16.9947 11.6 17.1067 11.92 17.224C12.336 17.384 12.7307 17.5493 13.104 17.72C13.4773 17.8907 13.8027 18.0987 14.08 18.344C14.368 18.5787 14.5973 18.8613 14.768 19.192C14.9387 19.5227 15.024 19.9227 15.024 20.392C15.024 21.1493 14.7947 21.7627 14.336 22.232C13.8773 22.6907 13.168 22.9787 12.208 23.096V25.16H10.88V23.144C10.1333 23.1227 9.52533 23.0427 9.056 22.904C8.58667 22.7547 8.23467 22.616 8 22.488L8.4 21.288C8.72 21.4373 9.104 21.576 9.552 21.704C10 21.832 10.5547 21.896 11.216 21.896Z" fill="black"/>
</svg>
