<svg width="32" height="32" viewBox="0 0 32 32" fill="none" xmlns="http://www.w3.org/2000/svg">
<path d="M31.06 8.07C31.06 8.05 31.05 8.03 31.05 8.02L28.53 0.49C28.43 0.2 28.16 0 27.85 0H3.23C2.93 0 2.65 0.2 2.56 0.49L0.04 8.02C0.03 8.04 0.03 8.06 0.02 8.07C0.01 8.08 0.02 8.1 0.01 8.12C0 8.16 0 8.2 0 8.25V11.3C0 11.53 0.11 11.75 0.3 11.88L1.01 12.39V30.43C1.01 30.82 1.33 31.14 1.72 31.14H29.36C29.75 31.14 30.07 30.82 30.07 30.43V12.39L30.78 11.88C30.97 11.75 31.08 11.53 31.08 11.3V8.25C31.08 8.21 31.08 8.16 31.07 8.12C31.07 8.1 31.07 8.09 31.06 8.07ZM29.66 10.93L28.75 11.58C27.95 12.16 26.86 12.16 26.06 11.58L24.86 10.72C24.61 10.54 24.28 10.54 24.03 10.72L22.83 11.58C22.03 12.16 20.94 12.16 20.14 11.58L18.94 10.72C18.69 10.54 18.36 10.54 18.11 10.72L16.91 11.58C16.1 12.16 15.02 12.16 14.22 11.58L13.02 10.72C12.77 10.54 12.44 10.54 12.19 10.72L10.99 11.58C10.18 12.16 9.1 12.16 8.3 11.58L7.1 10.72C6.85 10.54 6.52 10.54 6.27 10.72L5.07 11.58C4.26 12.16 3.18 12.16 2.38 11.58L1.48 10.93V8.96H29.71L29.66 10.93ZM3.75 1.43H27.34L29.38 7.54H1.71L3.75 1.43ZM20.63 29.71H10.46V21.24H20.63V29.71ZM22.05 29.71V20.52C22.05 20.13 21.73 19.81 21.34 19.81H9.75C9.36 19.81 9.04 20.13 9.04 20.52V29.71H2.44V13.23C3.59 13.64 4.87 13.46 5.86 12.74L6.65 12.18L7.44 12.74C8.74 13.68 10.5 13.68 11.8 12.74L12.59 12.18L13.38 12.74C14.68 13.68 16.44 13.68 17.74 12.74L18.53 12.18L19.32 12.74C20.62 13.68 22.38 13.68 23.68 12.74L24.47 12.18L25.26 12.75C26.25 13.46 27.53 13.65 28.68 13.23V29.72L22.05 29.71Z" fill="black"/>
</svg>
