<svg width="37" height="31" viewBox="0 0 37 31" fill="none" xmlns="http://www.w3.org/2000/svg">
<path d="M24.72 1H1V21.56H24.72V1Z" stroke="black" stroke-width="2" stroke-linecap="round" stroke-linejoin="round"/>
<path d="M24.72 8.91016H31.05L35.79 13.6502V21.5602H24.72V8.91016Z" stroke="black" stroke-width="2" stroke-linecap="round" stroke-linejoin="round"/>
<path d="M8.11998 29.4601C10.3015 29.4601 12.07 27.6916 12.07 25.5101C12.07 23.3285 10.3015 21.5601 8.11998 21.5601C5.93846 21.5601 4.16998 23.3285 4.16998 25.5101C4.16998 27.6916 5.93846 29.4601 8.11998 29.4601Z" stroke="black" stroke-width="2" stroke-linecap="round" stroke-linejoin="round"/>
<path d="M28.67 29.4601C30.8515 29.4601 32.62 27.6916 32.62 25.5101C32.62 23.3285 30.8515 21.5601 28.67 21.5601C26.4884 21.5601 24.72 23.3285 24.72 25.5101C24.72 27.6916 26.4884 29.4601 28.67 29.4601Z" stroke="black" stroke-width="2" stroke-linecap="round" stroke-linejoin="round"/>
</svg>
